<svg width="359" height="143" viewBox="0 0 359 143" fill="none" xmlns="http://www.w3.org/2000/svg">
<g filter="url(#filter0_d)">
<path d="M153.959 61.3184H170.682V78.0414H153.959V61.3184Z" fill="#BDBDBD"/>
<path d="M153.959 44.5955H170.682V61.3184H153.959V44.5955Z" fill="#BDBDBD"/>
<path d="M170.682 61.3184H187.405V78.0414H170.682V61.3184Z" fill="#BDBDBD"/>
<path d="M170.682 44.5955H187.405V61.3184H170.682V44.5955Z" fill="#BDBDBD"/>
<path d="M187.405 61.3184H204.128V78.0414H187.405V61.3184Z" fill="#BDBDBD"/>
<path d="M187.405 44.5955H204.128V61.3184H187.405V44.5955Z" fill="#BDBDBD"/>
<path d="M204.128 68.2846H213.419V77.5752H204.128V68.2846Z" fill="#BDBDBD"/>
<path d="M213.419 58.6225H222.709V68.2847L213.419 68.2846L213.419 58.6225Z" fill="#BDBDBD"/>
<path d="M222.709 49.3319H232V58.6225L222.709 58.6225L222.709 49.3319Z" fill="#BDBDBD"/>
<path d="M159.534 37.4662H172.541V50.4729H159.534V37.4662Z" fill="#BDBDBD"/>
<path d="M159.534 24.8311H172.541V37.4662H159.534V24.8311Z" fill="#BDBDBD"/>
<path d="M159.534 11.8244H172.541V24.8311H159.534V11.8244Z" fill="#BDBDBD"/>
<path d="M172.541 37.4662H185.176V50.4729H172.541V37.4662Z" fill="#BDBDBD"/>
<path d="M172.541 24.8311H185.176V37.4662H172.541V24.8311Z" fill="#BDBDBD"/>
<path d="M172.541 11.8244H185.176V24.8311H172.541V11.8244Z" fill="#BDBDBD"/>
<path d="M185.176 37.4662H198.182V50.4729H185.176V37.4662Z" fill="#BDBDBD"/>
<path d="M185.176 24.8311H198.182V37.4662H185.176V24.8311Z" fill="#BDBDBD"/>
<path d="M185.176 11.8244H198.182V24.8311H185.176V11.8244Z" fill="#BDBDBD"/>
<path d="M159.534 8.10816H163.25V11.8244L159.534 11.8244V8.10816Z" fill="#BDBDBD"/>
<path d="M159.534 4.39187H163.25V8.10816H159.534V4.39187Z" fill="#BDBDBD"/>
<path d="M163.25 4.39187H166.966V8.10808L163.25 8.10816V4.39187Z" fill="#BDBDBD"/>
<path d="M163.25 0.675659H166.966V4.39187H163.25L163.25 0.675659Z" fill="#BDBDBD"/>
<path d="M166.966 8.10808L170.682 8.10816V11.8244H166.966L166.966 8.10808Z" fill="#BDBDBD"/>
<path d="M166.966 4.39187H170.682V8.10816L166.966 8.10808V4.39187Z" fill="#BDBDBD"/>
<path d="M187.034 8.10816H190.75V11.8244H187.034V8.10816Z" fill="#BDBDBD"/>
<path d="M187.034 4.39187H190.75V8.10816H187.034V4.39187Z" fill="#BDBDBD"/>
<path d="M190.75 4.39187H194.466V8.10808L190.75 8.10816V4.39187Z" fill="#BDBDBD"/>
<path d="M190.75 0.675659H194.466V4.39187H190.75L190.75 0.675659Z" fill="#BDBDBD"/>
<path d="M194.466 8.10808L198.182 8.10816L198.182 11.8244L194.466 11.8244L194.466 8.10808Z" fill="#BDBDBD"/>
<path d="M194.466 4.39187H198.182V8.10816L194.466 8.10808V4.39187Z" fill="#BDBDBD"/>
<rect x="198.182" y="30.4397" width="2.22973" height="2.22973" fill="#828282"/>
<rect x="200.412" y="28.21" width="1.85811" height="2.22973" fill="#828282"/>
<rect x="202.27" y="26.3518" width="2.22973" height="1.85811" fill="#828282"/>
<rect x="157.676" y="32.6694" width="2.22973" height="2.22973" transform="rotate(-90 157.676 32.6694)" fill="#828282"/>
<rect x="155.446" y="30.4397" width="1.85811" height="2.22973" transform="rotate(-90 155.446 30.4397)" fill="#828282"/>
<rect x="153.588" y="28.5815" width="2.22973" height="1.85811" transform="rotate(-90 153.588 28.5815)" fill="#828282"/>
<rect width="2.22973" height="2.22973" transform="matrix(-4.37114e-08 1 1 4.37114e-08 157.304 36.7573)" fill="#828282"/>
<rect width="1.85811" height="2.22973" transform="matrix(-4.37114e-08 1 1 4.37114e-08 155.074 38.9869)" fill="#828282"/>
<rect width="2.22973" height="1.85811" transform="matrix(-4.37114e-08 1 1 4.37114e-08 153.216 40.8451)" fill="#828282"/>
<rect x="202.27" y="41.96" width="2.22973" height="2.22973" transform="rotate(-90 202.27 41.96)" fill="#828282"/>
<rect x="200.041" y="39.7301" width="1.85811" height="2.22973" transform="rotate(-90 200.041 39.7301)" fill="#828282"/>
<rect x="198.182" y="37.8721" width="2.22973" height="1.85811" transform="rotate(-90 198.182 37.8721)" fill="#828282"/>
<rect x="187.034" y="27.4324" width="3.71621" height="3.71621" fill="#4F4F4F"/>
<rect x="168.824" y="27.4324" width="3.71621" height="3.71621" fill="#4F4F4F"/>
<rect x="177" y="33.7501" width="3.71621" height="3.71621" fill="#F29A9A"/>
<rect x="178.432" y="33.7501" width="3.71621" height="3.71621" fill="#F29A9A"/>
<rect x="190.75" y="8.10815" width="3.71621" height="3.71621" fill="#F28C8C"/>
<rect x="163.25" y="8.10815" width="3.71621" height="3.71621" fill="#F28C8C"/>
<rect x="173.27" y="12.1352" width="2.86486" height="7.16216" fill="#828282"/>
<rect x="177.568" y="12.1352" width="2.86486" height="7.16216" fill="#828282"/>
<rect x="181.865" y="12.1352" width="2.86486" height="7.16216" fill="#828282"/>
<rect x="197.622" y="22.1622" width="2.86486" height="4.2973" transform="rotate(90 197.622 22.1622)" fill="#828282"/>
<rect x="197.622" y="26.4595" width="2.86486" height="4.2973" transform="rotate(90 197.622 26.4595)" fill="#828282"/>
<rect x="197.622" y="30.7568" width="2.86486" height="4.2973" transform="rotate(90 197.622 30.7568)" fill="#828282"/>
<rect x="164.676" y="22.1622" width="2.86486" height="4.2973" transform="rotate(90 164.676 22.1622)" fill="#828282"/>
<rect x="164.676" y="26.4595" width="2.86486" height="4.2973" transform="rotate(90 164.676 26.4595)" fill="#828282"/>
<rect x="164.676" y="30.7568" width="2.86486" height="4.2973" transform="rotate(90 164.676 30.7568)" fill="#828282"/>
<rect x="161.811" y="52.2433" width="2.86486" height="7.16216" transform="rotate(90 161.811 52.2433)" fill="#828282"/>
<rect x="161.811" y="56.5406" width="2.86486" height="7.16216" transform="rotate(90 161.811 56.5406)" fill="#828282"/>
<rect x="161.811" y="60.8379" width="2.86486" height="7.16216" transform="rotate(90 161.811 60.8379)" fill="#828282"/>
<rect x="203.351" y="52.2433" width="2.86486" height="7.16216" transform="rotate(90 203.351 52.2433)" fill="#828282"/>
<rect x="203.351" y="56.5406" width="2.86486" height="7.16216" transform="rotate(90 203.351 56.5406)" fill="#828282"/>
<rect x="203.351" y="60.8379" width="2.86486" height="7.16216" transform="rotate(90 203.351 60.8379)" fill="#828282"/>
<path d="M7.57187 82.5938C7.64479 83.8958 7.95208 84.9531 8.49374 85.7656C9.52499 87.2865 11.3427 88.0469 13.9469 88.0469C15.1135 88.0469 16.176 87.8802 17.1344 87.5469C18.9885 86.901 19.9156 85.7448 19.9156 84.0781C19.9156 82.8281 19.525 81.9375 18.7437 81.4062C17.9521 80.8854 16.7125 80.4323 15.025 80.0469L11.9156 79.3438C9.88437 78.8854 8.44687 78.3802 7.60312 77.8281C6.14479 76.8698 5.41562 75.4375 5.41562 73.5312C5.41562 71.4688 6.12916 69.776 7.55624 68.4531C8.98333 67.1302 11.0042 66.4688 13.6187 66.4688C16.025 66.4688 18.0667 67.0521 19.7437 68.2188C21.4312 69.375 22.275 71.2292 22.275 73.7812H19.3531C19.1969 72.5521 18.8635 71.6094 18.3531 70.9531C17.4052 69.7552 15.7958 69.1562 13.525 69.1562C11.6917 69.1562 10.374 69.5417 9.57187 70.3125C8.76979 71.0833 8.36874 71.9792 8.36874 73C8.36874 74.125 8.83749 74.9479 9.77499 75.4688C10.3896 75.8021 11.7802 76.2188 13.9469 76.7188L17.1656 77.4531C18.7177 77.8073 19.9156 78.2917 20.7594 78.9062C22.2177 79.9792 22.9469 81.5365 22.9469 83.5781C22.9469 86.1198 22.0198 87.9375 20.1656 89.0312C18.3219 90.125 16.176 90.6719 13.7281 90.6719C10.874 90.6719 8.63958 89.9427 7.02499 88.4844C5.41041 87.0365 4.61874 85.0729 4.64999 82.5938H7.57187ZM35.0781 72.8906C36.2656 72.8906 37.4167 73.1719 38.5312 73.7344C39.6458 74.2865 40.4948 75.0052 41.0781 75.8906C41.6406 76.7344 42.0156 77.7188 42.2031 78.8438C42.3698 79.6146 42.4531 80.8438 42.4531 82.5312H30.1875C30.2396 84.2292 30.6406 85.5938 31.3906 86.625C32.1406 87.6458 33.3021 88.1562 34.875 88.1562C36.3437 88.1562 37.5156 87.6719 38.3906 86.7031C38.8906 86.1406 39.2448 85.4896 39.4531 84.75H42.2187C42.1458 85.3646 41.901 86.0521 41.4844 86.8125C41.0781 87.5625 40.6198 88.1771 40.1094 88.6562C39.2552 89.4896 38.1979 90.0521 36.9375 90.3438C36.2604 90.5104 35.4948 90.5938 34.6406 90.5938C32.5573 90.5938 30.7917 89.8385 29.3437 88.3281C27.8958 86.8073 27.1719 84.6823 27.1719 81.9531C27.1719 79.2656 27.901 77.0833 29.3594 75.4062C30.8177 73.7292 32.724 72.8906 35.0781 72.8906ZM39.5625 80.2969C39.4479 79.0781 39.1823 78.1042 38.7656 77.375C37.9948 76.0208 36.7083 75.3438 34.9062 75.3438C33.6146 75.3438 32.5312 75.8125 31.6562 76.75C30.7812 77.6771 30.3177 78.8594 30.2656 80.2969H39.5625ZM48.0844 68.5938H50.9281V73.2656H53.6V75.5625H50.9281V86.4844C50.9281 87.0677 51.126 87.4583 51.5219 87.6562C51.7406 87.7708 52.1052 87.8281 52.6156 87.8281C52.751 87.8281 52.8969 87.8281 53.0531 87.8281C53.2094 87.8177 53.3917 87.8021 53.6 87.7812V90C53.2771 90.0938 52.9385 90.1615 52.5844 90.2031C52.2406 90.2448 51.8656 90.2656 51.4594 90.2656C50.1469 90.2656 49.2562 89.9323 48.7875 89.2656C48.3187 88.5885 48.0844 87.7135 48.0844 86.6406V75.5625H45.8187V73.2656H48.0844V68.5938ZM58.5906 68.5938H61.4344V73.2656H64.1062V75.5625H61.4344V86.4844C61.4344 87.0677 61.6323 87.4583 62.0281 87.6562C62.2469 87.7708 62.6115 87.8281 63.1219 87.8281C63.2573 87.8281 63.4031 87.8281 63.5594 87.8281C63.7156 87.8177 63.8979 87.8021 64.1062 87.7812V90C63.7833 90.0938 63.4448 90.1615 63.0906 90.2031C62.7469 90.2448 62.3719 90.2656 61.9656 90.2656C60.6531 90.2656 59.7625 89.9323 59.2937 89.2656C58.825 88.5885 58.5906 87.7135 58.5906 86.6406V75.5625H56.325V73.2656H58.5906V68.5938ZM68.5344 73.3438H71.3937V90H68.5344V73.3438ZM68.5344 67.0469H71.3937V70.2344H68.5344V67.0469ZM77.2594 73.2656H79.9312V75.6406C80.7229 74.6615 81.5615 73.9583 82.4469 73.5312C83.3323 73.1042 84.3167 72.8906 85.4 72.8906C87.775 72.8906 89.3792 73.7188 90.2125 75.375C90.6708 76.2812 90.9 77.5781 90.9 79.2656V90H88.0406V79.4531C88.0406 78.4323 87.8896 77.6094 87.5875 76.9844C87.0875 75.9427 86.1812 75.4219 84.8687 75.4219C84.2021 75.4219 83.6552 75.4896 83.2281 75.625C82.4573 75.8542 81.7802 76.3125 81.1969 77C80.7281 77.5521 80.4208 78.125 80.275 78.7188C80.1396 79.3021 80.0719 80.1406 80.0719 81.2344V90H77.2594V73.2656ZM102.578 72.9688C103.891 72.9688 105.036 73.2917 106.016 73.9375C106.547 74.3021 107.089 74.8333 107.641 75.5312V73.4219H110.234V88.6406C110.234 90.7656 109.922 92.4427 109.297 93.6719C108.13 95.9427 105.927 97.0781 102.687 97.0781C100.885 97.0781 99.3698 96.6719 98.1406 95.8594C96.9115 95.0573 96.224 93.7969 96.0781 92.0781H98.9375C99.0729 92.8281 99.3437 93.4062 99.75 93.8125C100.385 94.4375 101.385 94.75 102.75 94.75C104.906 94.75 106.318 93.9896 106.984 92.4688C107.38 91.5729 107.562 89.974 107.531 87.6719C106.969 88.526 106.292 89.1615 105.5 89.5781C104.708 89.9948 103.661 90.2031 102.359 90.2031C100.547 90.2031 98.9583 89.5625 97.5937 88.2812C96.2396 86.9896 95.5625 84.8594 95.5625 81.8906C95.5625 79.0885 96.2448 76.901 97.6094 75.3281C98.9844 73.7552 100.641 72.9688 102.578 72.9688ZM107.641 81.5625C107.641 79.4896 107.214 77.9531 106.359 76.9531C105.505 75.9531 104.417 75.4531 103.094 75.4531C101.115 75.4531 99.7604 76.3802 99.0312 78.2344C98.6458 79.224 98.4531 80.5208 98.4531 82.125C98.4531 84.0104 98.8333 85.4479 99.5937 86.4375C100.365 87.4167 101.396 87.9062 102.687 87.9062C104.708 87.9062 106.13 86.9948 106.953 85.1719C107.411 84.1406 107.641 82.9375 107.641 81.5625ZM127.153 68.5938H129.997V73.2656H132.669V75.5625H129.997V86.4844C129.997 87.0677 130.195 87.4583 130.591 87.6562C130.809 87.7708 131.174 87.8281 131.684 87.8281C131.82 87.8281 131.966 87.8281 132.122 87.8281C132.278 87.8177 132.46 87.8021 132.669 87.7812V90C132.346 90.0938 132.007 90.1615 131.653 90.2031C131.309 90.2448 130.934 90.2656 130.528 90.2656C129.216 90.2656 128.325 89.9323 127.856 89.2656C127.387 88.5885 127.153 87.7135 127.153 86.6406V75.5625H124.887V73.2656H127.153V68.5938ZM137.097 66.9688H139.909V75.5312C140.576 74.6875 141.175 74.0938 141.706 73.75C142.612 73.1562 143.743 72.8594 145.097 72.8594C147.524 72.8594 149.17 73.7083 150.034 75.4062C150.503 76.3333 150.737 77.6198 150.737 79.2656V90H147.847V79.4531C147.847 78.224 147.691 77.3229 147.378 76.75C146.868 75.8333 145.909 75.375 144.503 75.375C143.336 75.375 142.279 75.776 141.331 76.5781C140.383 77.3802 139.909 78.8958 139.909 81.125V90H137.097V66.9688ZM163.478 72.8906C164.666 72.8906 165.817 73.1719 166.931 73.7344C168.046 74.2865 168.895 75.0052 169.478 75.8906C170.041 76.7344 170.416 77.7188 170.603 78.8438C170.77 79.6146 170.853 80.8438 170.853 82.5312H158.587C158.64 84.2292 159.041 85.5938 159.791 86.625C160.541 87.6458 161.702 88.1562 163.275 88.1562C164.744 88.1562 165.916 87.6719 166.791 86.7031C167.291 86.1406 167.645 85.4896 167.853 84.75H170.619C170.546 85.3646 170.301 86.0521 169.884 86.8125C169.478 87.5625 169.02 88.1771 168.509 88.6562C167.655 89.4896 166.598 90.0521 165.337 90.3438C164.66 90.5104 163.895 90.5938 163.041 90.5938C160.957 90.5938 159.192 89.8385 157.744 88.3281C156.296 86.8073 155.572 84.6823 155.572 81.9531C155.572 79.2656 156.301 77.0833 157.759 75.4062C159.218 73.7292 161.124 72.8906 163.478 72.8906ZM167.962 80.2969C167.848 79.0781 167.582 78.1042 167.166 77.375C166.395 76.0208 165.108 75.3438 163.306 75.3438C162.015 75.3438 160.931 75.8125 160.056 76.75C159.181 77.6771 158.718 78.8594 158.666 80.2969H167.962ZM187.131 70.7188C187.173 69.5521 187.376 68.6979 187.741 68.1562C188.397 67.1979 189.662 66.7188 191.537 66.7188C191.715 66.7188 191.897 66.724 192.084 66.7344C192.272 66.7448 192.485 66.7604 192.725 66.7812V69.3438C192.433 69.3229 192.22 69.3125 192.084 69.3125C191.959 69.3021 191.84 69.2969 191.725 69.2969C190.871 69.2969 190.36 69.5208 190.194 69.9688C190.027 70.4062 189.944 71.5312 189.944 73.3438H192.725V75.5625H189.912V90H187.131V75.5625H184.803V73.3438H187.131V70.7188ZM203.575 88.1875C205.44 88.1875 206.716 87.4844 207.403 86.0781C208.101 84.6615 208.45 83.0885 208.45 81.3594C208.45 79.7969 208.2 78.526 207.7 77.5469C206.908 76.0052 205.544 75.2344 203.606 75.2344C201.887 75.2344 200.637 75.8906 199.856 77.2031C199.075 78.5156 198.684 80.099 198.684 81.9531C198.684 83.7344 199.075 85.2188 199.856 86.4062C200.637 87.5938 201.877 88.1875 203.575 88.1875ZM203.684 72.7812C205.841 72.7812 207.664 73.5 209.153 74.9375C210.643 76.375 211.387 78.4896 211.387 81.2812C211.387 83.9792 210.731 86.2083 209.419 87.9688C208.106 89.7292 206.07 90.6094 203.309 90.6094C201.007 90.6094 199.179 89.8333 197.825 88.2812C196.471 86.7188 195.794 84.625 195.794 82C195.794 79.1875 196.507 76.9479 197.934 75.2812C199.361 73.6146 201.278 72.7812 203.684 72.7812ZM219.159 73.2656V84.375C219.159 85.2292 219.295 85.9271 219.566 86.4688C220.066 87.4688 220.998 87.9688 222.362 87.9688C224.321 87.9688 225.654 87.0938 226.362 85.3438C226.748 84.4062 226.941 83.1198 226.941 81.4844V73.2656H229.753V90H227.097L227.128 87.5312C226.764 88.1667 226.31 88.7031 225.769 89.1406C224.696 90.0156 223.394 90.4531 221.862 90.4531C219.477 90.4531 217.852 89.6562 216.987 88.0625C216.519 87.2083 216.284 86.0677 216.284 84.6406V73.2656H219.159ZM235.759 73.2656H238.431V75.6406C239.223 74.6615 240.061 73.9583 240.947 73.5312C241.832 73.1042 242.817 72.8906 243.9 72.8906C246.275 72.8906 247.879 73.7188 248.712 75.375C249.171 76.2812 249.4 77.5781 249.4 79.2656V90H246.541V79.4531C246.541 78.4323 246.39 77.6094 246.087 76.9844C245.587 75.9427 244.681 75.4219 243.369 75.4219C242.702 75.4219 242.155 75.4896 241.728 75.625C240.957 75.8542 240.28 76.3125 239.697 77C239.228 77.5521 238.921 78.125 238.775 78.7188C238.64 79.3021 238.572 80.1406 238.572 81.2344V90H235.759V73.2656ZM256.953 81.8281C256.953 83.6198 257.333 85.1198 258.094 86.3281C258.854 87.5365 260.073 88.1406 261.75 88.1406C263.052 88.1406 264.12 87.5833 264.953 86.4688C265.797 85.3438 266.219 83.7344 266.219 81.6406C266.219 79.526 265.786 77.9635 264.922 76.9531C264.057 75.9323 262.99 75.4219 261.719 75.4219C260.302 75.4219 259.151 75.9635 258.266 77.0469C257.391 78.1302 256.953 79.724 256.953 81.8281ZM261.188 72.9688C262.469 72.9688 263.542 73.2396 264.406 73.7812C264.906 74.0938 265.474 74.6406 266.109 75.4219V66.9688H268.812V90H266.281V87.6719C265.625 88.7031 264.849 89.4479 263.953 89.9062C263.057 90.3646 262.031 90.5938 260.875 90.5938C259.01 90.5938 257.396 89.8125 256.031 88.25C254.667 86.6771 253.984 84.5885 253.984 81.9844C253.984 79.5469 254.604 77.4375 255.844 75.6562C257.094 73.8646 258.875 72.9688 261.188 72.9688ZM276.741 85.5469C276.741 86.3594 277.038 87 277.631 87.4688C278.225 87.9375 278.928 88.1719 279.741 88.1719C280.73 88.1719 281.689 87.9427 282.616 87.4844C284.178 86.724 284.959 85.4792 284.959 83.75V81.4844C284.616 81.7031 284.173 81.8854 283.631 82.0312C283.09 82.1771 282.558 82.2812 282.038 82.3438L280.334 82.5625C279.314 82.6979 278.548 82.9115 278.038 83.2031C277.173 83.6927 276.741 84.474 276.741 85.5469ZM283.553 79.8594C284.199 79.776 284.631 79.5052 284.85 79.0469C284.975 78.7969 285.038 78.4375 285.038 77.9688C285.038 77.0104 284.694 76.3177 284.006 75.8906C283.329 75.4531 282.355 75.2344 281.084 75.2344C279.616 75.2344 278.574 75.6302 277.959 76.4219C277.616 76.8594 277.392 77.5104 277.288 78.375H274.663C274.715 76.3125 275.381 74.8802 276.663 74.0781C277.954 73.2656 279.449 72.8594 281.147 72.8594C283.116 72.8594 284.715 73.2344 285.944 73.9844C287.163 74.7344 287.772 75.901 287.772 77.4844V87.125C287.772 87.4167 287.829 87.651 287.944 87.8281C288.069 88.0052 288.324 88.0938 288.709 88.0938C288.834 88.0938 288.975 88.0885 289.131 88.0781C289.288 88.0573 289.454 88.0312 289.631 88V90.0781C289.194 90.2031 288.86 90.2812 288.631 90.3125C288.402 90.3438 288.09 90.3594 287.694 90.3594C286.725 90.3594 286.022 90.0156 285.584 89.3281C285.355 88.9635 285.194 88.4479 285.1 87.7812C284.527 88.5312 283.704 89.1823 282.631 89.7344C281.558 90.2865 280.376 90.5625 279.084 90.5625C277.532 90.5625 276.261 90.0938 275.272 89.1562C274.293 88.2083 273.803 87.026 273.803 85.6094C273.803 84.0573 274.288 82.8542 275.256 82C276.225 81.1458 277.496 80.6198 279.069 80.4219L283.553 79.8594ZM294.559 68.5938H297.403V73.2656H300.075V75.5625H297.403V86.4844C297.403 87.0677 297.601 87.4583 297.997 87.6562C298.216 87.7708 298.58 87.8281 299.091 87.8281C299.226 87.8281 299.372 87.8281 299.528 87.8281C299.684 87.8177 299.867 87.8021 300.075 87.7812V90C299.752 90.0938 299.414 90.1615 299.059 90.2031C298.716 90.2448 298.341 90.2656 297.934 90.2656C296.622 90.2656 295.731 89.9323 295.262 89.2656C294.794 88.5885 294.559 87.7135 294.559 86.6406V75.5625H292.294V73.2656H294.559V68.5938ZM304.503 73.3438H307.362V90H304.503V73.3438ZM304.503 67.0469H307.362V70.2344H304.503V67.0469ZM319.869 88.1875C321.733 88.1875 323.009 87.4844 323.697 86.0781C324.395 84.6615 324.744 83.0885 324.744 81.3594C324.744 79.7969 324.494 78.526 323.994 77.5469C323.202 76.0052 321.837 75.2344 319.9 75.2344C318.181 75.2344 316.931 75.8906 316.15 77.2031C315.369 78.5156 314.978 80.099 314.978 81.9531C314.978 83.7344 315.369 85.2188 316.15 86.4062C316.931 87.5938 318.171 88.1875 319.869 88.1875ZM319.978 72.7812C322.134 72.7812 323.957 73.5 325.447 74.9375C326.936 76.375 327.681 78.4896 327.681 81.2812C327.681 83.9792 327.025 86.2083 325.712 87.9688C324.4 89.7292 322.364 90.6094 319.603 90.6094C317.301 90.6094 315.473 89.8333 314.119 88.2812C312.765 86.7188 312.087 84.625 312.087 82C312.087 79.1875 312.801 76.9479 314.228 75.2812C315.655 73.6146 317.572 72.7812 319.978 72.7812ZM332.641 73.2656H335.312V75.6406C336.104 74.6615 336.943 73.9583 337.828 73.5312C338.714 73.1042 339.698 72.8906 340.781 72.8906C343.156 72.8906 344.76 73.7188 345.594 75.375C346.052 76.2812 346.281 77.5781 346.281 79.2656V90H343.422V79.4531C343.422 78.4323 343.271 77.6094 342.969 76.9844C342.469 75.9427 341.562 75.4219 340.25 75.4219C339.583 75.4219 339.036 75.4896 338.609 75.625C337.839 75.8542 337.161 76.3125 336.578 77C336.109 77.5521 335.802 78.125 335.656 78.7188C335.521 79.3021 335.453 80.1406 335.453 81.2344V90H332.641V73.2656ZM74.5687 107.719C74.6104 106.552 74.8135 105.698 75.1781 105.156C75.8344 104.198 77.1 103.719 78.975 103.719C79.1521 103.719 79.3344 103.724 79.5219 103.734C79.7094 103.745 79.9229 103.76 80.1625 103.781V106.344C79.8708 106.323 79.6573 106.312 79.5219 106.312C79.3969 106.302 79.2771 106.297 79.1625 106.297C78.3083 106.297 77.7979 106.521 77.6312 106.969C77.4646 107.406 77.3812 108.531 77.3812 110.344H80.1625V112.562H77.35V127H74.5687V112.562H72.2406V110.344H74.5687V107.719ZM91.0125 125.188C92.8771 125.188 94.1531 124.484 94.8406 123.078C95.5385 121.661 95.8875 120.089 95.8875 118.359C95.8875 116.797 95.6375 115.526 95.1375 114.547C94.3458 113.005 92.9812 112.234 91.0437 112.234C89.325 112.234 88.075 112.891 87.2937 114.203C86.5125 115.516 86.1219 117.099 86.1219 118.953C86.1219 120.734 86.5125 122.219 87.2937 123.406C88.075 124.594 89.3146 125.188 91.0125 125.188ZM91.1219 109.781C93.2781 109.781 95.101 110.5 96.5906 111.938C98.0802 113.375 98.825 115.49 98.825 118.281C98.825 120.979 98.1687 123.208 96.8562 124.969C95.5437 126.729 93.5073 127.609 90.7469 127.609C88.4448 127.609 86.6167 126.833 85.2625 125.281C83.9083 123.719 83.2312 121.625 83.2312 119C83.2312 116.188 83.9448 113.948 85.3719 112.281C86.799 110.615 88.7156 109.781 91.1219 109.781ZM103.863 110.266H106.534V113.156C106.753 112.594 107.29 111.911 108.144 111.109C108.998 110.297 109.982 109.891 111.097 109.891C111.149 109.891 111.238 109.896 111.363 109.906C111.488 109.917 111.701 109.938 112.003 109.969V112.938C111.836 112.906 111.68 112.885 111.534 112.875C111.399 112.865 111.248 112.859 111.081 112.859C109.665 112.859 108.576 113.318 107.816 114.234C107.055 115.141 106.675 116.188 106.675 117.375V127H103.863V110.266ZM135.625 107.969L134.547 113.047H140.203C141.214 113.047 142.073 112.859 142.781 112.484C143.5 112.099 143.964 111.422 144.172 110.453C144.391 109.38 144.125 108.672 143.375 108.328C142.698 108.089 141.802 107.969 140.688 107.969H135.625ZM133.734 116.859L132.438 123H138.094C139.104 123 139.917 122.865 140.531 122.594C141.667 122.094 142.385 121.135 142.688 119.719C142.938 118.521 142.615 117.698 141.719 117.25C141.219 117 140.469 116.87 139.469 116.859H133.734ZM148.547 106.422C149.047 107.401 149.156 108.573 148.875 109.938C148.573 111.344 147.974 112.474 147.078 113.328C146.589 113.807 145.917 114.245 145.062 114.641C146.146 115.068 146.885 115.745 147.281 116.672C147.688 117.599 147.75 118.724 147.469 120.047C147.177 121.411 146.573 122.635 145.656 123.719C145.062 124.438 144.385 125.042 143.625 125.531C142.771 126.094 141.818 126.479 140.766 126.688C139.724 126.896 138.615 127 137.438 127H127L131.891 103.969H143.078C145.891 104.01 147.714 104.828 148.547 106.422ZM156.053 127H151.272L156.163 103.969H160.944L156.053 127ZM180.997 111.156C180.966 109.583 180.309 108.484 179.028 107.859C178.309 107.516 177.466 107.344 176.497 107.344C174.643 107.344 172.971 108.047 171.481 109.453C169.992 110.849 168.945 112.953 168.341 115.766C167.747 118.599 167.966 120.604 168.997 121.781C170.039 122.958 171.382 123.547 173.028 123.547C174.643 123.547 176.065 123.083 177.294 122.156C178.533 121.219 179.429 119.995 179.981 118.484H174.653L175.481 114.641H185.075L182.45 127H179.262L179.387 124.125C178.221 125.219 177.221 125.99 176.387 126.438C174.95 127.219 173.304 127.609 171.45 127.609C168.398 127.609 166.122 126.552 164.622 124.438C163.049 122.312 162.653 119.406 163.434 115.719C164.226 111.99 165.887 109 168.419 106.75C170.95 104.5 173.903 103.375 177.278 103.375C180.205 103.375 182.398 104.12 183.856 105.609C185.315 107.089 185.94 108.938 185.731 111.156H180.997ZM199.353 105.594H202.197V110.266H204.869V112.562H202.197V123.484C202.197 124.068 202.395 124.458 202.791 124.656C203.009 124.771 203.374 124.828 203.884 124.828C204.02 124.828 204.166 124.828 204.322 124.828C204.478 124.818 204.66 124.802 204.869 124.781V127C204.546 127.094 204.207 127.161 203.853 127.203C203.509 127.245 203.134 127.266 202.728 127.266C201.416 127.266 200.525 126.932 200.056 126.266C199.587 125.589 199.353 124.714 199.353 123.641V112.562H197.087V110.266H199.353V105.594ZM209.297 103.969H212.109V112.531C212.776 111.688 213.375 111.094 213.906 110.75C214.812 110.156 215.943 109.859 217.297 109.859C219.724 109.859 221.37 110.708 222.234 112.406C222.703 113.333 222.938 114.62 222.938 116.266V127H220.047V116.453C220.047 115.224 219.891 114.323 219.578 113.75C219.068 112.833 218.109 112.375 216.703 112.375C215.536 112.375 214.479 112.776 213.531 113.578C212.583 114.38 212.109 115.896 212.109 118.125V127H209.297V103.969ZM228.709 110.344H231.569V127H228.709V110.344ZM228.709 104.047H231.569V107.234H228.709V104.047ZM237.434 110.266H240.106V112.641C240.898 111.661 241.736 110.958 242.622 110.531C243.507 110.104 244.492 109.891 245.575 109.891C247.95 109.891 249.554 110.719 250.388 112.375C250.846 113.281 251.075 114.578 251.075 116.266V127H248.216V116.453C248.216 115.432 248.065 114.609 247.763 113.984C247.263 112.943 246.356 112.422 245.044 112.422C244.377 112.422 243.83 112.49 243.403 112.625C242.632 112.854 241.955 113.312 241.372 114C240.903 114.552 240.596 115.125 240.45 115.719C240.315 116.302 240.247 117.141 240.247 118.234V127H237.434V110.266ZM262.753 109.969C264.066 109.969 265.211 110.292 266.191 110.938C266.722 111.302 267.264 111.833 267.816 112.531V110.422H270.409V125.641C270.409 127.766 270.097 129.443 269.472 130.672C268.305 132.943 266.102 134.078 262.862 134.078C261.06 134.078 259.545 133.672 258.316 132.859C257.086 132.057 256.399 130.797 256.253 129.078H259.112C259.248 129.828 259.519 130.406 259.925 130.812C260.56 131.438 261.56 131.75 262.925 131.75C265.081 131.75 266.493 130.99 267.159 129.469C267.555 128.573 267.737 126.974 267.706 124.672C267.144 125.526 266.467 126.161 265.675 126.578C264.883 126.995 263.836 127.203 262.534 127.203C260.722 127.203 259.133 126.562 257.769 125.281C256.415 123.99 255.737 121.859 255.737 118.891C255.737 116.089 256.42 113.901 257.784 112.328C259.159 110.755 260.816 109.969 262.753 109.969ZM267.816 118.562C267.816 116.49 267.389 114.953 266.534 113.953C265.68 112.953 264.592 112.453 263.269 112.453C261.29 112.453 259.935 113.38 259.206 115.234C258.821 116.224 258.628 117.521 258.628 119.125C258.628 121.01 259.008 122.448 259.769 123.438C260.54 124.417 261.571 124.906 262.862 124.906C264.883 124.906 266.305 123.995 267.128 122.172C267.586 121.141 267.816 119.938 267.816 118.562ZM277.931 121.75C278.015 122.688 278.249 123.406 278.634 123.906C279.343 124.812 280.572 125.266 282.322 125.266C283.364 125.266 284.28 125.042 285.072 124.594C285.864 124.135 286.259 123.432 286.259 122.484C286.259 121.766 285.942 121.219 285.306 120.844C284.9 120.615 284.098 120.349 282.9 120.047L280.666 119.484C279.239 119.13 278.186 118.734 277.509 118.297C276.301 117.536 275.697 116.484 275.697 115.141C275.697 113.557 276.265 112.276 277.4 111.297C278.546 110.318 280.082 109.828 282.009 109.828C284.53 109.828 286.348 110.568 287.462 112.047C288.16 112.984 288.499 113.995 288.478 115.078H285.822C285.77 114.443 285.546 113.865 285.15 113.344C284.504 112.604 283.384 112.234 281.791 112.234C280.728 112.234 279.921 112.438 279.369 112.844C278.827 113.25 278.556 113.786 278.556 114.453C278.556 115.182 278.916 115.766 279.634 116.203C280.051 116.464 280.666 116.693 281.478 116.891L283.337 117.344C285.358 117.833 286.712 118.307 287.4 118.766C288.494 119.484 289.041 120.615 289.041 122.156C289.041 123.646 288.473 124.932 287.337 126.016C286.212 127.099 284.494 127.641 282.181 127.641C279.692 127.641 277.926 127.078 276.884 125.953C275.853 124.818 275.301 123.417 275.228 121.75H277.931Z" fill="#4F4F4F"/>
</g>
<defs>
<filter id="filter0_d" x="0.649109" y="0.675659" width="349.632" height="141.402" filterUnits="userSpaceOnUse" color-interpolation-filters="sRGB">
<feFlood flood-opacity="0" result="BackgroundImageFix"/>
<feColorMatrix in="SourceAlpha" type="matrix" values="0 0 0 0 0 0 0 0 0 0 0 0 0 0 0 0 0 0 127 0"/>
<feOffset dy="4"/>
<feGaussianBlur stdDeviation="2"/>
<feColorMatrix type="matrix" values="0 0 0 0 0 0 0 0 0 0 0 0 0 0 0 0 0 0 0.25 0"/>
<feBlend mode="normal" in2="BackgroundImageFix" result="effect1_dropShadow"/>
<feBlend mode="normal" in="SourceGraphic" in2="effect1_dropShadow" result="shape"/>
</filter>
</defs>
</svg>
